<svg width="154" height="156" viewBox="0 0 154 156" fill="none" xmlns="http://www.w3.org/2000/svg">
<path fill-rule="evenodd" clip-rule="evenodd" d="M154 78C154 121.078 119.526 156 77 156C34.4741 156 0 121.078 0 78C0 34.9218 34.4741 0 77 0C119.526 0 154 34.9218 154 78ZM139 78C139 112.977 111.06 141 77 141C56.8771 141 38.8902 131.218 27.5395 116H96C101.523 116 106 111.523 106 106C106 100.477 101.523 96 96 96H17.5625C16.7782 93.3194 16.1646 90.5627 15.7348 87.7423C16.4626 87.9109 17.2209 88 18 88H78C83.5229 88 88 83.5229 88 78C88 72.4771 83.5229 68 78 68H18C17.2209 68 16.4626 68.0891 15.7348 68.2577C16.194 65.2446 16.8629 62.3042 17.7256 59.4516C18.7515 59.8069 19.8532 60 21 60H61C66.5228 60 71 55.5229 71 50C71 44.4771 66.5228 40 61 40H27.5395C38.8902 24.7817 56.8771 15 77 15C111.06 15 139 43.023 139 78ZM53 50C53 45.5817 56.5817 42 61 42C65.4183 42 69 45.5817 69 50C69 54.4183 65.4183 58 61 58C56.5817 58 53 54.4183 53 50ZM78 70C73.5817 70 70 73.5817 70 78C70 82.4183 73.5817 86 78 86C82.4183 86 86 82.4183 86 78C86 73.5817 82.4183 70 78 70ZM88 106C88 101.582 91.5817 98 96 98C100.418 98 104 101.582 104 106C104 110.418 100.418 114 96 114C91.5817 114 88 110.418 88 106Z" fill="black"/>
</svg>
